HIERARCHY
ROOT Hips
{
  OFFSET -55.1146 27.5367 -73.252
  CHANNELS 6 Xposition Yposition Zposition Zrotation Xrotation Yrotation
  JOINT Spine
  {
    OFFSET 0 8 0
    CHANNELS 6 Xposition Yposition Zposition Zrotation Xrotation Yrotation
    JOINT Spine1
    {
      OFFSET 0 8 0
      CHANNELS 6 Xposition Yposition Zposition Zrotation Xrotation Yrotation
      JOINT Spine2
      {
        OFFSET 0 8 0
        CHANNELS 6 Xposition Yposition Zposition Zrotation Xrotation Yrotation
        JOINT Spine3
        {
          OFFSET 0 8 0
          CHANNELS 6 Xposition Yposition Zposition Zrotation Xrotation Yrotation
          JOINT Neck
          {
            OFFSET 2.68351e-05 17.0002 -1.44983e-05
            CHANNELS 6 Xposition Yposition Zposition Zrotation Xrotation Yrotation
            JOINT Head
            {
              OFFSET 1.33731e-05 10.8001 0
              CHANNELS 6 Xposition Yposition Zposition Zrotation Xrotation Yrotation
              End Site
              {
                OFFSET 0 20.25 0
              }
            }
          }
          JOINT LeftShoulder
          {
            OFFSET 5 17 0
            CHANNELS 6 Xposition Yposition Zposition Zrotation Xrotation Yrotation
            JOINT LeftShoulder2
            {
              OFFSET 6.45 0 0
              CHANNELS 6 Xposition Yposition Zposition Zrotation Xrotation Yrotation
              JOINT LeftArm
              {
                OFFSET 6.45001 0.000398986 -0.000252389
                CHANNELS 6 Xposition Yposition Zposition Zrotation Xrotation Yrotation
                JOINT LeftForeArm
                {
                  OFFSET 0 -32.4 -1.99999
                  CHANNELS 6 Xposition Yposition Zposition Zrotation Xrotation Yrotation
                  JOINT LeftHand
                  {
                    OFFSET 0 -25.65 2
                    CHANNELS 6 Xposition Yposition Zposition Zrotation Xrotation Yrotation
                    JOINT LeftHandThumb1
                    {
                      OFFSET -0.499989 -1.50001 2.65
                      CHANNELS 6 Xposition Yposition Zposition Zrotation Xrotation Yrotation
                      JOINT LeftHandThumb2
                      {
                        OFFSET -1.23803e-05 -3.79999 3.7
                        CHANNELS 6 Xposition Yposition Zposition Zrotation Xrotation Yrotation
                        JOINT LeftHandThumb3
                        {
                          OFFSET 0 -3 2.7
                          CHANNELS 6 Xposition Yposition Zposition Zrotation Xrotation Yrotation
                          End Site
                          {
                            OFFSET 0 -2.3 1.8
                          }
                        }
                      }
                    }
                    JOINT LeftHandIndex
                    {
                      OFFSET 0 -1.9 1.6
                      CHANNELS 6 Xposition Yposition Zposition Zrotation Xrotation Yrotation
                      JOINT LeftHandIndex1
                      {
                        OFFSET -1.34571e-05 -8.3 1.9
                        CHANNELS 6 Xposition Yposition Zposition Zrotation Xrotation Yrotation
                        JOINT LeftHandIndex2
                        {
                          OFFSET 1.65327e-05 -4.5 0
                          CHANNELS 6 Xposition Yposition Zposition Zrotation Xrotation Yrotation
                          JOINT LeftHandIndex3
                          {
                            OFFSET -1.1254e-05 -3.4 0
                            CHANNELS 6 Xposition Yposition Zposition Zrotation Xrotation Yrotation
                            End Site
                            {
                              OFFSET 0 -2.6 0
                            }
                          }
                        }
                      }
                    }
                    JOINT LeftHandMiddle
                    {
                      OFFSET -0.249993 -2.2 0.4
                      CHANNELS 6 Xposition Yposition Zposition Zrotation Xrotation Yrotation
                      JOINT LeftHandMiddle1
                      {
                        OFFSET 0 -8.3 1
                        CHANNELS 6 Xposition Yposition Zposition Zrotation Xrotation Yrotation
                        JOINT LeftHandMiddle2
                        {
                          OFFSET 0 -4.64999 0
                          CHANNELS 6 Xposition Yposition Zposition Zrotation Xrotation Yrotation
                          JOINT LeftHandMiddle3
                          {
                            OFFSET -1.15423e-05 -3.3 0
                            CHANNELS 6 Xposition Yposition Zposition Zrotation Xrotation Yrotation
                            End Site
                            {
                              OFFSET 0 -2.7 0
                            }
                          }
                        }
                      }
                    }
                    JOINT LeftHandRing
                    {
                      OFFSET -0.499994 -2.15001 -0.799996
                      CHANNELS 6 Xposition Yposition Zposition Zrotation Xrotation Yrotation
                      JOINT LeftHandRing1
                      {
                        OFFSET -1.10414e-05 -7.75 -0.200004
                        CHANNELS 6 Xposition Yposition Zposition Zrotation Xrotation Yrotation
                        JOINT LeftHandRing2
                        {
                          OFFSET 0 -3.8 0
                          CHANNELS 6 Xposition Yposition Zposition Zrotation Xrotation Yrotation
                          JOINT LeftHandRing3
                          {
                            OFFSET 0 -3.4 0
                            CHANNELS 6 Xposition Yposition Zposition Zrotation Xrotation Yrotation
                            End Site
                            {
                              OFFSET 0 -2.6 0
                            }
                          }
                        }
                      }
                    }
                    JOINT LeftHandPinky
                    {
                      OFFSET -0.74999 -1.75 -1.85
                      CHANNELS 6 Xposition Yposition Zposition Zrotation Xrotation Yrotation
                      JOINT LeftHandPinky1
                      {
                        OFFSET 0 -7.15 -1
                        CHANNELS 6 Xposition Yposition Zposition Zrotation Xrotation Yrotation
                        JOINT LeftHandPinky2
                        {
                          OFFSET 0 -3 0
                          CHANNELS 6 Xposition Yposition Zposition Zrotation Xrotation Yrotation
                          JOINT LeftHandPinky3
                          {
                            OFFSET 0 -2.35 0
                            CHANNELS 6 Xposition Yposition Zposition Zrotation Xrotation Yrotation
                            End Site
                            {
                              OFFSET 0 -2.1 0
                            }
                          }
                        }
                      }
                    }
                  }
                }
              }
            }
          }
          JOINT RightShoulder
          {
            OFFSET -5 17 0
            CHANNELS 6 Xposition Yposition Zposition Zrotation Xrotation Yrotation
            JOINT RightShoulder2
            {
              OFFSET -6.45 0 0
              CHANNELS 6 Xposition Yposition Zposition Zrotation Xrotation Yrotation
              JOINT RightArm
              {
                OFFSET -6.45 2.64135e-05 2.12243e-05
                CHANNELS 6 Xposition Yposition Zposition Zrotation Xrotation Yrotation
                JOINT RightForeArm
                {
                  OFFSET 1.22758e-05 -32.4 -2
                  CHANNELS 6 Xposition Yposition Zposition Zrotation Xrotation Yrotation
                  JOINT RightHand
                  {
                    OFFSET 0 -25.65 2
                    CHANNELS 6 Xposition Yposition Zposition Zrotation Xrotation Yrotation
                    JOINT RightHandThumb1
                    {
                      OFFSET 0.499991 -1.5 2.65
                      CHANNELS 6 Xposition Yposition Zposition Zrotation Xrotation Yrotation
                      JOINT RightHandThumb2
                      {
                        OFFSET 1.45317e-05 -3.8 3.7
                        CHANNELS 6 Xposition Yposition Zposition Zrotation Xrotation Yrotation
                        JOINT RightHandThumb3
                        {
                          OFFSET 0 -3 2.7
                          CHANNELS 6 Xposition Yposition Zposition Zrotation Xrotation Yrotation
                          End Site
                          {
                            OFFSET 0 -2.3 1.8
                          }
                        }
                      }
                    }
                    JOINT RightHandIndex
                    {
                      OFFSET 0 -1.9 1.6
                      CHANNELS 6 Xposition Yposition Zposition Zrotation Xrotation Yrotation
                      JOINT RightHandIndex1
                      {
                        OFFSET 1.12382e-05 -8.3 1.9
                        CHANNELS 6 Xposition Yposition Zposition Zrotation Xrotation Yrotation
                        JOINT RightHandIndex2
                        {
                          OFFSET -1.32953e-05 -4.5 0
                          CHANNELS 6 Xposition Yposition Zposition Zrotation Xrotation Yrotation
                          JOINT RightHandIndex3
                          {
                            OFFSET 1.15924e-05 -3.4 0
                            CHANNELS 6 Xposition Yposition Zposition Zrotation Xrotation Yrotation
                            End Site
                            {
                              OFFSET 0 -2.6 0
                            }
                          }
                        }
                      }
                    }
                    JOINT RightHandMiddle
                    {
                      OFFSET 0.249992 -2.2 0.400002
                      CHANNELS 6 Xposition Yposition Zposition Zrotation Xrotation Yrotation
                      JOINT RightHandMiddle1
                      {
                        OFFSET 0 -8.3 1
                        CHANNELS 6 Xposition Yposition Zposition Zrotation Xrotation Yrotation
                        JOINT RightHandMiddle2
                        {
                          OFFSET 0 -4.64999 0
                          CHANNELS 6 Xposition Yposition Zposition Zrotation Xrotation Yrotation
                          JOINT RightHandMiddle3
                          {
                            OFFSET 1.44298e-05 -3.3 0
                            CHANNELS 6 Xposition Yposition Zposition Zrotation Xrotation Yrotation
                            End Site
                            {
                              OFFSET 0 -2.7 0
                            }
                          }
                        }
                      }
                    }
                    JOINT RightHandRing
                    {
                      OFFSET 0.499996 -2.15001 -0.799996
                      CHANNELS 6 Xposition Yposition Zposition Zrotation Xrotation Yrotation
                      JOINT RightHandRing1
                      {
                        OFFSET 0 -7.75 -0.200001
                        CHANNELS 6 Xposition Yposition Zposition Zrotation Xrotation Yrotation
                        JOINT RightHandRing2
                        {
                          OFFSET 0 -3.8 0
                          CHANNELS 6 Xposition Yposition Zposition Zrotation Xrotation Yrotation
                          JOINT RightHandRing3
                          {
                            OFFSET 0 -3.4 0
                            CHANNELS 6 Xposition Yposition Zposition Zrotation Xrotation Yrotation
                            End Site
                            {
                              OFFSET 0 -2.6 0
                            }
                          }
                        }
                      }
                    }
                    JOINT RightHandPinky
                    {
                      OFFSET 0.749992 -1.75001 -1.85
                      CHANNELS 6 Xposition Yposition Zposition Zrotation Xrotation Yrotation
                      JOINT RightHandPinky1
                      {
                        OFFSET 0 -7.15 -0.999996
                        CHANNELS 6 Xposition Yposition Zposition Zrotation Xrotation Yrotation
                        JOINT RightHandPinky2
                        {
                          OFFSET 0 -3 0
                          CHANNELS 6 Xposition Yposition Zposition Zrotation Xrotation Yrotation
                          JOINT RightHandPinky3
                          {
                            OFFSET 0 -2.35 0
                            CHANNELS 6 Xposition Yposition Zposition Zrotation Xrotation Yrotation
                            End Site
                            {
                              OFFSET 0 -2.1 0
                            }
                          }
                        }
                      }
                    }
                  }
                }
              }
            }
          }
        }
      }
    }
  }
  JOINT LeftUpLeg
  {
    OFFSET 8 0 0
    CHANNELS 6 Xposition Yposition Zposition Zrotation Xrotation Yrotation
    JOINT LeftLeg
    {
      OFFSET 0 -45 -1.00002
      CHANNELS 6 Xposition Yposition Zposition Zrotation Xrotation Yrotation
      JOINT LeftFoot
      {
        OFFSET 0 -41 -2
        CHANNELS 6 Xposition Yposition Zposition Zrotation Xrotation Yrotation
        JOINT LeftToeBase
        {
          OFFSET 0 -7.5 12.5
          CHANNELS 6 Xposition Yposition Zposition Zrotation Xrotation Yrotation
          JOINT LeftFootToe
          {
            OFFSET 0 0 4
            CHANNELS 6 Xposition Yposition Zposition Zrotation Xrotation Yrotation
            End Site
            {
              OFFSET 0 0 0
            }
          }
        }
      }
    }
  }
  JOINT RightUpLeg
  {
    OFFSET -8 0 0
    CHANNELS 6 Xposition Yposition Zposition Zrotation Xrotation Yrotation
    JOINT RightLeg
    {
      OFFSET 0 -45 -1.00002
      CHANNELS 6 Xposition Yposition Zposition Zrotation Xrotation Yrotation
      JOINT RightFoot
      {
        OFFSET -1.1015e-05 -41 -2.00002
        CHANNELS 6 Xposition Yposition Zposition Zrotation Xrotation Yrotation
        JOINT RightToeBase
        {
          OFFSET 0 -7.5 12.5
          CHANNELS 6 Xposition Yposition Zposition Zrotation Xrotation Yrotation
          JOINT RightFootToe
          {
            OFFSET 0 0 4
            CHANNELS 6 Xposition Yposition Zposition Zrotation Xrotation Yrotation
            End Site
            {
              OFFSET 0 0 0
            }
          }
        }
      }
    }
  }
}
MOTION
Frames:	3
Frame Time:	0.0111111
-54.2082 28.4102 -73.4895 5.39507 9.74252 57.2809 7.10543e-15 8 -1.42109e-14 -6.1274 10.873 -13.1127 0 8 0 -6.1639 14.4461 14.5595 0 8 1.42109e-14 -1.66723 3.75118 7.39741 0 8 0 -0.172514 3.10197 3.30236 0 17 -1.42109e-14 2.13041 -4.6644 2.42759 0 10.8 -1.42109e-14 5.32766 -10.7466 5.98963 5 17 0 -7.81359 -5.66808 15.9539 6.45 0 -1.42109e-14 0.00614792 4.9825 -2.90794 6.45 7.10543e-15 0 26.627 -70.4701 -29.661 0 -32.4 -2 -106.598 -52.5662 -84.6256 1.77636e-15 -25.65 2 8.01726 52.4424 -35.6961 -0.5 -1.5 2.65 -4.46476 -11.7868 7.11485 0 -3.8 3.7 0.0941574 4.42314 -0.0461323 0 -3 2.7 0.0111576 17.5685 -0.00785535 -3.55271e-15 -1.9 1.6 -3.18055e-15 -3.18055e-15 -0 3.55271e-15 -8.3 1.9 -44.1967 15.7499 7.12938 0 -4.5 -3.55271e-15 -30.7964 -0.000668287 0.00473345 0 -3.4 0 -22.5711 6.36111e-15 0.000868268 -0.25 -2.2 0.4 -3.18055e-15 -3.18055e-15 -0 0 -8.3 1 -54.7125 11.1402 7.72928 -7.10543e-15 -4.65 -3.55271e-15 -36.9842 -0.00699722 -0.00295826 0 -3.3 3.55271e-15 -26.2651 -9.54166e-15 0.00332691 -0.5 -2.15 -0.8 -3.18055e-15 -3.18055e-15 -0 -1.77636e-15 -7.75 -0.2 -55.8266 11.3247 9.05605 7.10543e-15 -3.8 -3.55271e-15 -46.042 -0.0020887 0.00326928 -7.10543e-15 -3.4 -7.10543e-15 -31.8673 0.000962879 0.00766577 -0.75 -1.75 -1.85 -3.18055e-15 -3.18055e-15 -0 3.55271e-15 -7.15 -1 -71.3073 6.90893 11.7059 0 -3 0 -26.9473 -0.00620155 -0.00445347 0 -2.35 -7.10543e-15 -20.2515 0.00065833 0.00439513 -5 17 0 6.07705 -8.45777 -3.36157 -6.45 -3.55271e-15 1.42109e-14 2.24422 6.05904 1.80192 -6.45 -3.55271e-15 1.42109e-14 -32.8766 -53.2713 41.0276 3.55271e-15 -32.4 -2 38.1465 -33.447 6.26836 0 -25.65 2 -20.7284 2.95421 -25.2098 0.5 -1.5 2.65 -1.26292 -31.0156 1.11141 0 -3.8 3.7 -0.242675 32.1981 0.300527 0 -3 2.7 0.283098 26.2323 -0.151741 0 -1.9 1.6 1.59028e-15 5.06901e-15 -1.78906e-15 7.10543e-15 -8.3 1.9 15.2704 27.9835 -4.39087 0 -4.5 1.77636e-15 74.3737 0.0861723 0.139923 -8.88178e-16 -3.4 1.77636e-15 57.3755 0.222665 0.00376285 0.25 -2.2 0.4 1.59028e-15 5.06901e-15 -1.78906e-15 -7.10543e-15 -8.3 1 61.212 22.6469 -16.8226 7.10543e-15 -4.65 0 83.5357 -0.0539188 0.00334097 0 -3.3 -3.55271e-15 72.6536 -0.0518292 0.101556 0.5 -2.15 -0.8 1.59028e-15 5.06901e-15 -1.78906e-15 -7.10543e-15 -7.75 -0.2 78.2128 10.6344 -15.7911 -3.55271e-15 -3.8 5.32907e-15 59.4757 -0.0291175 -0.00787114 0 -3.4 -3.55271e-15 41.6369 -0.0227149 0.0113955 0.75 -1.75 -1.85 1.59028e-15 5.06901e-15 -1.78906e-15 0 -7.15 -1 73.5308 10.5034 -15.1996 0 -3 -5.32907e-15 73.2935 0.01538 0.001075 0 -2.35 3.55271e-15 55.9039 0.013305 -0.0142114 8 0 1.42109e-14 108.453 -53.895 115.365 0 -45 -1 176.21 42.7482 -177.75 -1.42109e-14 -41 -2 -2.17635 -30.8814 -40.4721 0 -7.5 12.5 -4.85314e-20 -2.91188e-19 1.59028e-14 7.10543e-15 -1.0842e-19 4 -4.08001 2.2125 -0.00561888 -8 3.55271e-15 1.42109e-14 -90.7089 -72.2988 -80.8058 -3.55271e-15 -45 -1 176.494 18.3767 178.234 -3.55271e-15 -41 -2 1.48874 -21.3176 1.30787 7.10543e-15 -7.5 12.5 6.36111e-15 -54.0998 -0 -7.10543e-15 2.1684e-19 4 1.87822 54.0968 0.00412116 
-54.2324 28.4143 -73.4487 5.3251 9.74067 57.3879 0 8 0 -6.15137 10.8694 -13.1044 7.10543e-15 8 -1.42109e-14 -6.20866 14.405 14.5354 7.10543e-15 8 1.42109e-14 -1.66803 3.74416 7.39598 -1.42109e-14 8 -1.42109e-14 -0.177055 3.10663 3.31551 0 17 -1.42109e-14 2.10398 -4.6793 2.44272 -7.10543e-15 10.8 1.42109e-14 5.26873 -10.7823 6.02312 5 17 -1.42109e-14 -7.84705 -5.64913 15.7347 6.45 0 0 -0.0451494 4.98913 -2.96 6.45 0 1.42109e-14 27.5974 -70.3088 -28.5191 -7.10543e-15 -32.4 -2 -106.904 -52.6387 -84.6329 3.55271e-15 -25.65 2 7.955 52.3903 -35.7114 -0.5 -1.5 2.65 -4.47456 -11.7873 7.10076 7.10543e-15 -3.8 3.7 0.0941996 4.47541 -0.0461355 3.55271e-15 -3 2.7 0.0111844 17.5258 -0.0078535 -7.10543e-15 -1.9 1.6 3.18055e-15 0 -1.27222e-14 3.55271e-15 -8.3 1.9 -44.193 15.7474 7.12732 0 -4.5 3.55271e-15 -30.6907 -0.000668287 0.00473345 0 -3.4 -7.10543e-15 -22.508 3.18055e-15 0.000868268 -0.25 -2.2 0.4 3.18055e-15 0 -1.27222e-14 -5.32907e-15 -8.3 1 -54.6326 11.1521 7.71986 0 -4.65 3.55271e-15 -36.9314 -0.00699722 -0.00295826 1.42109e-14 -3.3 3.55271e-15 -26.2334 -6.36111e-15 0.00332691 -0.5 -2.15 -0.8 3.18055e-15 0 -1.27222e-14 1.77636e-15 -7.75 -0.2 -55.7249 11.3316 9.03509 0 -3.8 3.55271e-15 -46.0919 -0.0020887 0.00326928 0 -3.4 0 -31.8997 0.000962879 0.00766577 -0.75 -1.75 -1.85 3.18055e-15 0 -1.27222e-14 -3.55271e-15 -7.15 -1 -71.2239 6.91498 11.6821 0 -3 7.10543e-15 -26.95 -0.00620155 -0.00445347 7.10543e-15 -2.35 0 -20.2531 0.00065833 0.00439513 -5 17 0 6.14352 -8.503 -3.33797 -6.45 0 0 2.21353 6.05948 1.79692 -6.45 -3.55271e-15 1.42109e-14 -33.9712 -52.6879 42.5615 -3.55271e-15 -32.4 -2 40.1125 -34.4869 8.13509 -7.10543e-15 -25.65 2 -19.5636 4.27343 -23.5016 0.5 -1.5 2.65 -1.5953 -31.5427 0.83419 7.10543e-15 -3.8 3.7 -0.127064 33.1163 0.18622 0 -3 2.7 0.202786 25.5492 -0.112101 0 -1.9 1.6 -4.77083e-15 3.18055e-15 1.59028e-15 0 -8.3 1.9 15.4755 28.0694 -4.48848 7.10543e-15 -4.5 1.77636e-15 74.0063 0.0908867 0.146399 0 -3.4 -1.77636e-15 56.8885 0.233388 0.00266848 0.25 -2.2 0.4 -4.77083e-15 3.18055e-15 1.59028e-15 -7.10543e-15 -8.3 1 60.9106 22.6627 -16.7637 0 -4.65 0 83.7971 -0.0487403 0.0031939 0 -3.3 0 73.207 -0.0475633 0.0942746 0.5 -2.15 -0.8 -4.77083e-15 3.18055e-15 1.59028e-15 0 -7.75 -0.2 78.0932 10.7205 -15.8549 0 -3.8 -1.77636e-15 59.528 -0.0798206 -0.0205105 -7.10543e-15 -3.4 0 41.6818 -0.0615833 0.0318272 0.75 -1.75 -1.85 -4.77083e-15 3.18055e-15 1.59028e-15 -7.10543e-15 -7.15 -1 73.2968 10.5231 -15.1785 -3.55271e-15 -3 -3.55271e-15 73.205 0.00455224 0.00110925 -1.42109e-14 -2.35 3.55271e-15 55.7888 0.00694287 -0.00361814 8 -7.10543e-15 0 108.583 -53.8372 115.46 0 -45 -1 176.235 42.783 -177.767 0 -41 -2 -2.14894 -30.8058 -40.5727 7.10543e-15 -7.5 12.5 1.21329e-20 -9.09964e-21 3.18055e-15 0 0 4 -4.16437 2.18496 -0.00567581 -8 0 0 -90.4581 -72.3422 -80.631 7.10543e-15 -45 -1 176.474 18.375 178.161 0 -41 -2 1.57198 -21.2411 1.35448 0 -7.5 12.5 7.60162e-15 -54.2684 5.44626e-15 0 2.1684e-19 4 1.93678 54.2643 0.00416055 
-54.2569 28.4177 -73.4098 5.25407 9.75111 57.5119 -7.10543e-15 8 0 -6.17287 10.8698 -13.1047 0 8 0 -6.25292 14.3676 14.5168 0 8 0 -1.66939 3.73693 7.39206 7.10543e-15 8 0 -0.181921 3.10946 3.32016 0 17 0 2.06947 -4.69264 2.4592 0 10.8 0 5.19076 -10.815 6.05864 5 17 1.42109e-14 -7.8705 -5.64706 15.55 6.45 0 0 -0.0893882 4.97851 -3.00658 6.45 0 0 28.3701 -70.1171 -27.5412 -7.10543e-15 -32.4 -2 -107.213 -52.7091 -84.6759 -5.32907e-15 -25.65 2 7.92281 52.3151 -35.741 -0.5 -1.5 2.65 -4.49349 -11.7833 7.0793 0 -3.8 3.7 0.0942441 4.53046 -0.046139 -3.55271e-15 -3 2.7 0.0112111 17.4806 -0.00785154 3.55271e-15 -1.9 1.6 5.29669e-31 9.54166e-15 -3.18055e-15 3.55271e-15 -8.3 1.9 -44.1338 15.7468 7.11654 -7.10543e-15 -4.5 0 -30.6885 -0.000668287 0.00473345 7.10543e-15 -3.4 3.55271e-15 -22.5066 3.18055e-15 0.000868268 -0.25 -2.2 0.4 5.29669e-31 9.54166e-15 -3.18055e-15 -1.77636e-15 -8.3 1 -54.5752 11.1698 7.71797 0 -4.65 0 -36.8864 -0.00699722 -0.00295826 7.10543e-15 -3.3 0 -26.2064 -3.18055e-15 0.00332691 -0.5 -2.15 -0.8 5.29669e-31 9.54166e-15 -3.18055e-15 5.32907e-15 -7.75 -0.2 -55.6512 11.3405 9.02195 7.10543e-15 -3.8 -3.55271e-15 -46.1531 -0.0020887 0.00326928 0 -3.4 3.55271e-15 -31.9394 0.000962879 0.00766577 -0.75 -1.75 -1.85 5.29669e-31 9.54166e-15 -3.18055e-15 0 -7.15 -1 -71.1629 6.92137 11.6659 1.42109e-14 -3 0 -26.9558 -0.00620155 -0.00445347 0 -2.35 -7.10543e-15 -20.2567 0.00065833 0.00439513 -5 17 0 6.20335 -8.55049 -3.30613 -6.45 0 1.42109e-14 2.18247 6.05305 1.79229 -6.45 7.10543e-15 -1.42109e-14 -35.0146 -52.0303 43.7479 -7.10543e-15 -32.4 -2 42.2103 -35.4625 10.2234 0 -25.65 2 -18.6085 5.69787 -21.9741 0.5 -1.5 2.65 -1.82065 -31.9879 0.594371 7.10543e-15 -3.8 3.7 -0.0224888 33.8661 0.0822031 0 -3 2.7 0.0974246 25.1747 -0.0589475 -7.10543e-15 -1.9 1.6 1.10348e-31 -1.98785e-15 3.18055e-15 0 -8.3 1.9 15.9726 28.2175 -4.62838 7.10543e-15 -4.5 -3.55271e-15 73.5567 0.0483061 0.0811359 0 -3.4 0 56.2629 0.124926 -6.41948e-05 0.25 -2.2 0.4 1.10348e-31 -1.98785e-15 3.18055e-15 -7.10543e-15 -8.3 1 61.0978 22.5922 -16.814 0 -4.65 3.55271e-15 83.8154 -0.0272443 0.0030956 0 -3.3 0 73.2449 -0.0252267 0.0532637 0.5 -2.15 -0.8 1.10348e-31 -1.98785e-15 3.18055e-15 0 -7.75 -0.2 77.9493 10.7424 -15.8338 0 -3.8 -3.55271e-15 59.8145 -0.0694869 -0.0199554 0 -3.4 3.55271e-15 41.9227 -0.0548562 0.0266596 0.75 -1.75 -1.85 1.10348e-31 -1.98785e-15 3.18055e-15 0 -7.15 -1 73.1934 10.5593 -15.2097 0 -3 0 73.1758 -0.000312218 0.00117377 7.10543e-15 -2.35 -3.55271e-15 55.751 0.00127051 0.000865026 8 3.55271e-15 0 108.744 -53.7978 115.582 -1.42109e-14 -45 -1 176.275 42.8129 -177.788 0 -41 -2 -2.1318 -30.7243 -40.6724 0 -7.5 12.5 1.21329e-20 8.493e-20 9.54166e-15 -7.10543e-15 0 4 -4.25103 2.15409 -0.00573099 -8 3.55271e-15 0 -90.2721 -72.3902 -80.5169 -7.10543e-15 -45 -1 176.454 18.3728 178.092 -1.06581e-14 -41 -2 1.65432 -21.1724 1.38568 0 -7.5 12.5 4.44709e-15 -54.4277 5.46741e-15 0 1.73472e-18 4 1.99765 54.4232 0.00419726 
